<?xml version="1.0" encoding="UTF-8" standalone="no"?><svg xmlns="http://www.w3.org/2000/svg" xmlns:xlink="http://www.w3.org/1999/xlink" contentStyleType="text/css" height="612px" preserveAspectRatio="none" style="width:566px;height:612px;background:#FFFFFF;" version="1.1" viewBox="0 0 566 612" width="566px" zoomAndPan="magnify"><defs/><g><rect fill="#FFFFFF" height="27.6094" style="stroke:#00000000;stroke-width:1.0;" width="43" x="254.5" y="5"/><text fill="#000000" font-family="sans-serif" font-size="14" font-weight="bold" lengthAdjust="spacing" textLength="33" x="259.5" y="24.5332">MDD</text><!--MD5=[99b31deea5d7419a569cd5090bf83263]
cluster System--><g id="cluster_System"><path d="M8.5,44.6094 L59.5,44.6094 A3.75,3.75 0 0 1 62,47.1094 L69,68.2188 L555.5,68.2188 A2.5,2.5 0 0 1 558,70.7188 L558,603.1094 A2.5,2.5 0 0 1 555.5,605.6094 L8.5,605.6094 A2.5,2.5 0 0 1 6,603.1094 L6,47.1094 A2.5,2.5 0 0 1 8.5,44.6094 " style="stroke:#000000;stroke-width:1.5;fill:none;"/><line style="stroke:#000000;stroke-width:1.5;fill:none;" x1="6" x2="69" y1="68.2188" y2="68.2188"/><text fill="#000000" font-family="sans-serif" font-size="14" font-weight="bold" lengthAdjust="spacing" textLength="50" x="10" y="61.1426">System</text></g><!--MD5=[10a08b655f733f3f3e8b0ffe69f4343a]
class Université--><g id="elem_Université"><rect codeLine="8" fill="#F1F1F1" height="42.7031" id="Université" rx="2.5" ry="2.5" style="stroke:#181818;stroke-width:0.5;" width="86" x="176" y="80.6094"/><text fill="#000000" font-family="sans-serif" font-size="12" font-style="italic" lengthAdjust="spacing" textLength="84" x="177" y="98.0664">«Organisation»</text><text fill="#000000" font-family="sans-serif" font-size="14" lengthAdjust="spacing" textLength="62" x="188" y="115.2363">Université</text></g><!--MD5=[cd00d0adf1841bcbc5b73be4c2122107]
class Étudiant--><g id="elem_Étudiant"><rect codeLine="9" fill="#F1F1F1" height="42.7031" id="Étudiant" rx="2.5" ry="2.5" style="stroke:#181818;stroke-width:0.5;" width="58" x="22" y="214.1094"/><text fill="#000000" font-family="sans-serif" font-size="12" font-style="italic" lengthAdjust="spacing" textLength="40" x="31" y="231.5664">«Role»</text><text fill="#000000" font-family="sans-serif" font-size="14" lengthAdjust="spacing" textLength="52" x="25" y="248.7363">Étudiant</text></g><!--MD5=[1a76f23f55e9fa151b4a0e12fec455e8]
class Inscription--><g id="elem_Inscription"><rect codeLine="10" fill="#F1F1F1" height="42.7031" id="Inscription" rx="2.5" ry="2.5" style="stroke:#181818;stroke-width:0.5;" width="80" x="177" y="214.1094"/><text fill="#000000" font-family="sans-serif" font-size="12" font-style="italic" lengthAdjust="spacing" textLength="78" x="178" y="231.5664">«Transaction»</text><text fill="#000000" font-family="sans-serif" font-size="14" lengthAdjust="spacing" textLength="64" x="185" y="248.7363">Inscription</text></g><!--MD5=[f6edf60997924e693a9a5571eb281b8c]
class Cours--><g id="elem_Cours"><rect codeLine="11" fill="#F1F1F1" height="68.3125" id="Cours" rx="2.5" ry="2.5" style="stroke:#181818;stroke-width:0.5;" width="120" x="292" y="201.6094"/><text fill="#000000" font-family="sans-serif" font-size="12" font-style="italic" lengthAdjust="spacing" textLength="118" x="293" y="219.0664">«Description d'entité»</text><text fill="#000000" font-family="sans-serif" font-size="14" lengthAdjust="spacing" textLength="38" x="333" y="236.2363">Cours</text><line style="stroke:#181818;stroke-width:0.5;" x1="293" x2="411" y1="244.3125" y2="244.3125"/><text fill="#000000" font-family="sans-serif" font-size="14" lengthAdjust="spacing" textLength="74" x="298" y="262.8457">sigle: String</text></g><!--MD5=[289bc8117ed867c013feee2d9b3b300d]
class Trimestre--><g id="elem_Trimestre"><rect codeLine="14" fill="#F1F1F1" height="121.1406" id="Trimestre" rx="2.5" ry="2.5" style="stroke:#181818;stroke-width:0.5;" width="154" x="72" y="468.6094"/><text fill="#000000" font-family="sans-serif" font-size="12" font-style="italic" lengthAdjust="spacing" textLength="81" x="108.5" y="486.0664">«Planification»</text><text fill="#000000" font-family="sans-serif" font-size="14" lengthAdjust="spacing" textLength="60" x="119" y="503.2363">Trimestre</text><line style="stroke:#181818;stroke-width:0.5;" x1="73" x2="225" y1="511.3125" y2="511.3125"/><text fill="#000000" font-family="sans-serif" font-size="14" lengthAdjust="spacing" textLength="97" x="78" y="529.8457">session : String</text><text fill="#000000" font-family="sans-serif" font-size="14" lengthAdjust="spacing" textLength="89" x="78" y="547.4551">année : Entier</text><text fill="#000000" font-family="sans-serif" font-size="14" lengthAdjust="spacing" textLength="142" x="78" y="565.0645">debutInscription : Date</text><text fill="#000000" font-family="sans-serif" font-size="14" lengthAdjust="spacing" textLength="121" x="78" y="582.6738">finInscription : Date</text></g><!--MD5=[b32d763bfdb05d07119f0e8fadbdfdc1]
class GroupeCours--><g id="elem_GroupeCours"><rect codeLine="20" fill="#F1F1F1" height="42.7031" id="GroupeCours" rx="2.5" ry="2.5" style="stroke:#181818;stroke-width:0.5;" width="92" x="247" y="347.6094"/><text fill="#000000" font-family="sans-serif" font-size="12" font-style="italic" lengthAdjust="spacing" textLength="55" x="265.5" y="365.0664">«Service»</text><text fill="#000000" font-family="sans-serif" font-size="14" lengthAdjust="spacing" textLength="86" x="250" y="382.2363">GroupeCours</text></g><!--MD5=[5141942134b7a4265cb6fabe8241c706]
class Horaire--><g id="elem_Horaire"><rect codeLine="21" fill="#F1F1F1" height="42.7031" id="Horaire" rx="2.5" ry="2.5" style="stroke:#181818;stroke-width:0.5;" width="83" x="261.5" y="507.6094"/><text fill="#000000" font-family="sans-serif" font-size="12" font-style="italic" lengthAdjust="spacing" textLength="81" x="262.5" y="525.0664">«Planification»</text><text fill="#000000" font-family="sans-serif" font-size="14" lengthAdjust="spacing" textLength="46" x="280" y="542.2363">Horaire</text></g><!--MD5=[cd0fbe75c199b7105571d279d6d2d771]
link Université to Cours--><g id="link_Université_Cours"><path codeLine="22" d="M259.85,123.7894 C273.56,131.9194 288.32,142.0894 300,153.6094 C314.04,167.4594 326.18,185.7494 335.19,201.4494 " fill="none" id="Université-Cours" style="stroke:#181818;stroke-width:1.0;"/><polygon fill="#000000" points="323.4815,166.3739,319.2928,157.8354,315.074,161.9282,323.4815,166.3739" style="stroke:#000000;stroke-width:1.0;"/><text fill="#000000" font-family="sans-serif" font-size="13" lengthAdjust="spacing" textLength="116" x="329" y="168.1045">Offre des formations</text><text fill="#000000" font-family="sans-serif" font-size="13" lengthAdjust="spacing" textLength="7" x="262.4209" y="144.9731">1</text><text fill="#000000" font-family="sans-serif" font-size="13" lengthAdjust="spacing" textLength="5" x="326.3883" y="190.6481">*</text></g><!--MD5=[926fc2476b02f86ef744714868c4d6ec]
link Université to Étudiant--><g id="link_Université_Étudiant"><path codeLine="23" d="M175.85,110.9394 C147.86,117.9594 112.23,130.8094 88,153.6094 C70.66,169.9294 60.8,195.9294 55.68,214.0494 " fill="none" id="Université-Étudiant" style="stroke:#181818;stroke-width:1.0;"/><polygon fill="#000000" points="89.2054,166.0411,97.9837,162.3815,94.1561,157.9207,89.2054,166.0411" style="stroke:#000000;stroke-width:1.0;"/><text fill="#000000" font-family="sans-serif" font-size="13" lengthAdjust="spacing" textLength="107" x="102" y="168.1045">Offre des service a</text><text fill="#000000" font-family="sans-serif" font-size="13" lengthAdjust="spacing" textLength="7" x="161.1236" y="108.6257">1</text><text fill="#000000" font-family="sans-serif" font-size="13" lengthAdjust="spacing" textLength="5" x="51.2931" y="203.3219">*</text></g><!--MD5=[3510b8d00db45a6ccbe0eb11ea9bf858]
link Université to Inscription--><g id="link_Université_Inscription"><path codeLine="24" d="M218.69,123.6594 C218.31,148.2194 217.69,189.0894 217.32,213.7694 " fill="none" id="Université-Inscription" style="stroke:#181818;stroke-width:1.0;"/><polygon fill="#000000" points="222.924,167.7846,226.0001,158.7852,220.1229,158.6959,222.924,167.7846" style="stroke:#000000;stroke-width:1.0;"/><text fill="#000000" font-family="sans-serif" font-size="13" lengthAdjust="spacing" textLength="59" x="232" y="168.1045">Enregistre</text><text fill="#000000" font-family="sans-serif" font-size="13" lengthAdjust="spacing" textLength="7" x="210.7137" y="144.8098">1</text><text fill="#000000" font-family="sans-serif" font-size="13" lengthAdjust="spacing" textLength="5" x="211.7341" y="203.3321">*</text></g><!--MD5=[7027753856604df86ce6716663fedc80]
link Étudiant to Inscription--><g id="link_Étudiant_Inscription"><path codeLine="25" d="M80.3,235.6094 C107.1,235.6094 147,235.6094 176.79,235.6094 " fill="none" id="Étudiant-Inscription" style="stroke:#181818;stroke-width:1.0;"/><polygon fill="#000000" points="107.5,223.7852,98.4549,220.8462,98.4549,226.7241,107.5,223.7852" style="stroke:#000000;stroke-width:1.0;"/><text fill="#000000" font-family="sans-serif" font-size="13" lengthAdjust="spacing" textLength="47" x="111.5" y="229.1045">Effectue</text><text fill="#000000" font-family="sans-serif" font-size="13" lengthAdjust="spacing" textLength="7" x="87.885" y="231.3295">1</text><text fill="#000000" font-family="sans-serif" font-size="13" lengthAdjust="spacing" textLength="5" x="163.9153" y="231.6893">*</text></g><!--MD5=[f7cb8ef3e92b520c2c03dff15429cb17]
link Inscription to GroupeCours--><g id="link_Inscription_GroupeCours"><path codeLine="26" d="M221.55,257.3094 C225.88,274.3394 233.48,298.6694 245,317.6094 C251.54,328.3594 260.68,338.7094 269.24,347.2094 " fill="none" id="Inscription-GroupeCours" style="stroke:#181818;stroke-width:1.0;"/><polygon fill="#000000" points="252.3431,313.2021,250.7006,303.8345,245.5081,306.589,252.3431,313.2021" style="stroke:#000000;stroke-width:1.0;"/><text fill="#000000" font-family="sans-serif" font-size="13" lengthAdjust="spacing" textLength="49" x="259" y="314.1045">Est-pour</text><text fill="#000000" font-family="sans-serif" font-size="13" lengthAdjust="spacing" textLength="7" x="214.8059" y="278.1229">1</text><text fill="#000000" font-family="sans-serif" font-size="13" lengthAdjust="spacing" textLength="5" x="257.1826" y="336.756">*</text></g><!--MD5=[dd19a10ffb7e2e1829c46178384b5825]
link Cours to GroupeCours--><g id="link_Cours_GroupeCours"><path codeLine="27" d="M337.11,269.7894 C326.19,294.1394 311.69,326.4594 302.35,347.2694 " fill="none" id="Cours-GroupeCours" style="stroke:#181818;stroke-width:1.0;"/><polygon fill="#000000" points="329.0466,304.2232,322.6628,311.2729,328.0257,313.6788,329.0466,304.2232" style="stroke:#000000;stroke-width:1.0;"/><text fill="#000000" font-family="sans-serif" font-size="13" lengthAdjust="spacing" textLength="108" x="336" y="314.1045">Est-enseigné-dans</text><text fill="#000000" font-family="sans-serif" font-size="13" lengthAdjust="spacing" textLength="7" x="326.6044" y="291.3288">1</text><text fill="#000000" font-family="sans-serif" font-size="13" lengthAdjust="spacing" textLength="5" x="299.1909" y="336.8321">*</text></g><!--MD5=[b36d3ce36b095542d5ccbf12b8ca1a0c]
link GroupeCours to Horaire--><g id="link_GroupeCours_Horaire"><path codeLine="28" d="M294.31,390.7694 C296.22,421.0494 299.78,477.1694 301.69,507.4494 " fill="none" id="GroupeCours-Horaire" style="stroke:#181818;stroke-width:1.0;"/><polygon fill="#000000" points="302.3156,434.7752,304.6777,425.5626,298.8116,425.9337,302.3156,434.7752" style="stroke:#000000;stroke-width:1.0;"/><text fill="#000000" font-family="sans-serif" font-size="13" lengthAdjust="spacing" textLength="90" x="311" y="435.1045">Se-donne-selon</text><text fill="#000000" font-family="sans-serif" font-size="13" lengthAdjust="spacing" textLength="7" x="286.7488" y="411.9479">1</text><text fill="#000000" font-family="sans-serif" font-size="13" lengthAdjust="spacing" textLength="7" x="293.3372" y="496.6938">1</text></g><!--MD5=[a5c369f96b3146c08a979a2db0839dc7]
link GroupeCours to Trimestre--><g id="link_GroupeCours_Trimestre"><path codeLine="29" d="M248.31,390.7494 C234.27,398.6994 219.45,408.7594 208,420.6094 C194.68,434.3894 183.44,451.7594 174.45,468.5094 " fill="none" id="GroupeCours-Trimestre" style="stroke:#181818;stroke-width:1.0;"/><polygon fill="#000000" points="209.5565,433.4104,217.9167,428.8763,213.6549,424.8282,209.5565,433.4104" style="stroke:#000000;stroke-width:1.0;"/><text fill="#000000" font-family="sans-serif" font-size="13" lengthAdjust="spacing" textLength="65" x="222" y="435.1045">À-lieu-dans</text><text fill="#000000" font-family="sans-serif" font-size="13" lengthAdjust="spacing" textLength="5" x="234.0195" y="410.1437">*</text><text fill="#000000" font-family="sans-serif" font-size="13" lengthAdjust="spacing" textLength="7" x="170.1252" y="457.6567">1</text></g><!--MD5=[251d242a84491574cb5ac9ce33383186]
link Cours to Cours--><g id="link_Cours_Cours"><path codeLine="30" d="M412.3,222.1094 C431.66,222.2494 447,226.7494 447,235.6094 C447,244.4694 431.66,248.9694 412.3,249.1094 " fill="none" id="Cours-Cours" style="stroke:#181818;stroke-width:1.0;"/><polygon fill="#000000" points="452.0362,240.785,454.9096,231.7189,449.0319,231.7614,452.0362,240.785" style="stroke:#000000;stroke-width:1.0;"/><text fill="#000000" font-family="sans-serif" font-size="13" lengthAdjust="spacing" textLength="87" x="466" y="241.1045">Est-préalable-à</text><text fill="#000000" font-family="sans-serif" font-size="13" lengthAdjust="spacing" textLength="7" x="420.0756" y="216.9866">1</text><text fill="#000000" font-family="sans-serif" font-size="13" lengthAdjust="spacing" textLength="5" x="419.9538" y="247.2772">*</text></g><!--MD5=[e939186a0d1cdc35d3cb10f58d732dda]
@startuml MDD
top to bottom direction
title MDD
skinparam backgroundColor white
skinparam style strictuml
hide empty members

package System {
class Université <<Organisation>>
class Étudiant <<Role>>
class Inscription <<Transaction>>
class Cours <<Description d'entité>>{
  sigle: String
}
class Trimestre <<Planification>>{
  session : String
  année : Entier
  debutInscription : Date 
  finInscription : Date 
}
class GroupeCours <<Service>>
class Horaire <<Planification>>
Université "1" - - "*" Cours: Offre des formations >
Université "1" - - "*" Étudiant: Offre des service a >
Université "1" - - "*" Inscription : Enregistre >
Étudiant "1" - "*" Inscription: Effectue >
Inscription "1" - - "*" GroupeCours: Est-pour >
Cours "1" - - "*" GroupeCours: Est-enseigné-dans <
GroupeCours "1" - - "1" Horaire: Se-donne-selon >
GroupeCours "*" - - "1" Trimestre: À-lieu-dans >
Cours "1" - - "*" Cours: Est-préalable-à >
}
@enduml

PlantUML version 1.2022.5(Sat Apr 30 06:55:52 EDT 2022)
(GPL source distribution)
Java Runtime: Java(TM) SE Runtime Environment
JVM: Java HotSpot(TM) 64-Bit Server VM
Default Encoding: UTF-8
Language: en
Country: CA
--></g></svg>